<svg aria-hidden="true" style="position: absolute; width: 0; height: 0; overflow: hidden;" version="1.1" xmlns="http://www.w3.org/2000/svg" xmlns:xlink="http://www.w3.org/1999/xlink">
<defs>

<symbol id="icon-shop" viewBox="0 0 32 32">
<path d="M5.344 2.069c-0.1 0.031-0.237 0.094-0.3 0.144-0.063 0.044-1.212 2.025-2.563 4.387l-2.45 4.306 0.006 0.5c0.019 0.869 0.344 1.794 0.894 2.525 0.319 0.425 1 1.012 1.462 1.262l0.356 0.188v6.975c0 7.688-0.025 7.238 0.394 7.488 0.194 0.125 0.406 0.125 12.856 0.125s12.663 0 12.856-0.125c0.419-0.25 0.394 0.2 0.394-7.488v-6.975l0.369-0.194c1.363-0.725 2.319-2.275 2.344-3.781l0.006-0.5-2.4-4.219c-1.319-2.319-2.475-4.3-2.569-4.394-0.094-0.1-0.275-0.2-0.413-0.231-0.325-0.081-20.994-0.069-21.244 0.006zM27.856 6.875l1.831 3.219-6.844 0.019c-3.762 0.006-9.925 0.006-13.688 0l-6.844-0.019 1.831-3.231 1.825-3.231 20.063 0.025 1.825 3.219zM7.525 11.856c-0.463 1.925-2.563 2.887-4.338 1.988-0.362-0.181-0.825-0.594-1.069-0.944-0.169-0.25-0.494-1-0.494-1.15 0-0.037 1.075-0.063 2.969-0.063h2.969l-0.037 0.169zM15.1 11.95c-0.063 0.394-0.4 0.975-0.794 1.369-1.188 1.188-3.144 1.144-4.287-0.094-0.35-0.375-0.669-0.944-0.744-1.338l-0.037-0.2h5.906l-0.044 0.262zM22.725 11.887c-0.194 0.969-1.156 1.938-2.188 2.213-1.113 0.3-2.45-0.175-3.131-1.1-0.256-0.35-0.525-0.95-0.531-1.175v-0.137h5.894l-0.044 0.2zM30.337 11.919c-0.087 0.412-0.438 1-0.806 1.369-1.025 1.031-2.544 1.194-3.756 0.412-0.619-0.4-1.025-0.95-1.25-1.688l-0.081-0.262h5.931l-0.038 0.169zM9.044 14.481c0.481 0.475 1.069 0.831 1.738 1.056 0.713 0.244 1.731 0.281 2.475 0.094 0.881-0.219 1.494-0.569 2.169-1.238l0.581-0.575 0.544 0.544c0.613 0.613 1.125 0.938 1.856 1.181 0.45 0.156 0.594 0.169 1.406 0.169 0.831 0.006 0.944-0.012 1.406-0.169 0.275-0.1 0.688-0.287 0.919-0.425 0.419-0.244 1.106-0.863 1.337-1.2l0.125-0.175 0.306 0.381c0.775 0.963 2.131 1.619 3.363 1.625h0.419v12.625h-12.938v-4.306c0-2.625-0.025-4.431-0.063-4.631-0.194-1.025-0.95-1.825-1.969-2.094-0.506-0.131-3.012-0.131-3.563-0.006-0.9 0.212-1.631 0.894-1.95 1.825-0.094 0.275-0.106 0.775-0.125 4.756l-0.025 4.456h-2.744v-12.625h0.425c1.225-0.006 2.581-0.662 3.356-1.625l0.306-0.381 0.125 0.175c0.063 0.094 0.3 0.35 0.519 0.563zM12.531 18.931c0.3 0.137 0.431 0.275 0.563 0.587 0.081 0.194 0.094 0.8 0.094 4.544v4.313h-4.5v-4.338c0-2.925 0.019-4.4 0.069-4.519 0.094-0.25 0.3-0.456 0.588-0.587 0.219-0.1 0.419-0.119 1.594-0.119 1.169 0 1.375 0.019 1.594 0.119z"></path>
<path d="M17.831 17.319c-0.337 0.081-0.887 0.45-1.137 0.762-0.106 0.137-0.25 0.4-0.319 0.587-0.125 0.331-0.131 0.45-0.113 2.481l0.019 2.131 0.163 0.35c0.212 0.45 0.6 0.837 1.050 1.050l0.35 0.163h5.438l0.35-0.163c0.45-0.212 0.837-0.6 1.050-1.050l0.163-0.35v-4.438l-0.163-0.344c-0.206-0.431-0.606-0.831-1.056-1.050l-0.344-0.169-2.594-0.012c-1.5-0.006-2.706 0.019-2.856 0.050zM23 18.906c0.1 0.050 0.212 0.15 0.25 0.212 0.038 0.075 0.063 0.825 0.063 1.975v1.856l-0.363 0.363h-4.775l-0.363-0.363v-1.869c0-2.006 0.012-2.075 0.337-2.206 0.069-0.031 1.15-0.056 2.4-0.056 1.906-0.006 2.3 0.006 2.45 0.087z"></path>
</symbol>
<symbol id="icon-shopping-cart" viewBox="0 0 32 32">
<path d="M0.394 0.537c-0.194 0.094-0.394 0.406-0.394 0.612 0 0.2 0.181 0.531 0.35 0.644 0.156 0.1 0.362 0.119 1.806 0.144 1.531 0.031 1.638 0.038 1.888 0.175 0.356 0.188 0.675 0.519 0.85 0.875 0.081 0.163 1.2 3.469 2.481 7.35l2.338 7.050-0.113 0.294c-0.456 1.188-0.438 1.125-0.444 1.881 0 0.587 0.025 0.794 0.144 1.137 0.387 1.125 1.313 1.969 2.481 2.269 0.544 0.137 15.194 0.144 15.462 0.006 0.512-0.269 0.506-1.006-0.012-1.306-0.106-0.056-1.831-0.081-7.7-0.106l-7.563-0.031-0.338-0.188c-0.344-0.188-0.65-0.519-0.856-0.906-0.081-0.163-0.113-0.363-0.119-0.781 0-0.481 0.025-0.625 0.175-0.975 0.175-0.406 0.188-0.419 0.438-0.456 0.144-0.019 3.65-0.387 7.794-0.819s7.688-0.813 7.875-0.85c0.75-0.144 1.531-0.538 2.087-1.050 0.406-0.375 0.825-1.044 1.038-1.662 0.231-0.669 1.95-8.031 1.913-8.188-0.044-0.181-0.256-0.394-0.475-0.481-0.1-0.037-4.637-0.125-12.262-0.231-6.662-0.094-12.119-0.181-12.137-0.2-0.013-0.013-0.169-0.475-0.35-1.025-0.463-1.394-0.631-1.725-1.156-2.256-0.481-0.488-1.094-0.831-1.706-0.956-0.188-0.037-0.975-0.069-1.813-0.069-1.219 0-1.519 0.019-1.681 0.1zM20.438 6.444c5.413 0.075 9.85 0.144 9.863 0.156 0.012 0.006-0.344 1.525-0.794 3.381-0.85 3.488-0.981 3.894-1.381 4.325-0.319 0.338-0.769 0.606-1.194 0.719-0.35 0.088-15.219 1.663-15.731 1.663h-0.194l-0.95-2.894c-0.525-1.588-1.294-3.938-1.719-5.225l-0.769-2.338 1.513 0.037c0.831 0.025 5.944 0.1 11.356 0.175z"></path>
<path d="M9.5 24.975c-1.2 0.256-2.25 1.281-2.531 2.469-0.269 1.15 0.056 2.281 0.894 3.119 0.856 0.856 1.969 1.175 3.131 0.906 0.581-0.137 1.1-0.444 1.575-0.919 0.744-0.744 1.088-1.75 0.944-2.762-0.156-1.094-0.856-2.056-1.856-2.538-0.738-0.363-1.381-0.444-2.156-0.275zM11.025 26.587c0.656 0.319 1 0.9 1.006 1.663 0 0.369-0.031 0.525-0.144 0.75-0.225 0.425-0.619 0.794-1 0.938-1.519 0.569-2.956-0.869-2.387-2.387 0.181-0.488 0.675-0.931 1.25-1.119 0.287-0.094 0.919-0.019 1.275 0.156z"></path>
<path d="M23.625 24.975c-0.637 0.137-1.156 0.425-1.656 0.925-0.675 0.675-0.969 1.375-0.969 2.319 0 0.95 0.306 1.7 0.981 2.369 1.3 1.3 3.363 1.3 4.662 0 0.675-0.669 0.981-1.406 0.981-2.331 0-0.988-0.281-1.669-0.969-2.356-0.506-0.506-1.019-0.788-1.688-0.931-0.531-0.113-0.813-0.113-1.344 0.006zM25.075 26.544c0.375 0.169 0.719 0.525 0.913 0.944 0.406 0.887 0.031 1.944-0.844 2.387-0.431 0.225-1.231 0.225-1.663 0-1.025-0.519-1.313-1.775-0.631-2.762 0.456-0.656 1.444-0.913 2.225-0.569z"></path>
</symbol>
<symbol id="icon-right-arrow" viewBox="0 0 32 32">
<path d="M23.719 8.369c-0.294 0.137-0.556 0.4-0.65 0.65s-0.087 0.762 0.019 1c0.050 0.113 1.087 1.2 2.344 2.45l2.256 2.25-26.844 0.063-0.238 0.15c-0.131 0.081-0.313 0.262-0.406 0.4-0.144 0.213-0.169 0.325-0.169 0.669s0.025 0.456 0.169 0.669c0.094 0.137 0.275 0.319 0.406 0.4l0.238 0.15 26.844 0.063-2.256 2.25c-1.256 1.25-2.294 2.337-2.344 2.45-0.106 0.238-0.113 0.75-0.019 1 0.225 0.606 1.044 0.931 1.631 0.656 0.269-0.125 6.9-6.637 7.125-7 0.212-0.344 0.206-0.963-0.019-1.3-0.262-0.394-6.838-6.85-7.106-6.975-0.3-0.144-0.669-0.137-0.981 0.006z"></path>
</symbol>
<symbol id="icon-logout" viewBox="0 0 43 43"><path d="M9 42q-1.2 0-2.1-.9Q6 40.2 6 39V9q0-1.2.9-2.1Q7.8 6 9 6h14.55v3H9v30h14.55v3Zm24.3-9.25-2.15-2.15 5.1-5.1h-17.5v-3h17.4l-5.1-5.1 2.15-2.15 8.8 8.8Z"/></symbol>
<symbol id="icon-edit" viewBox="0 0 60 60"><path d="M9 39h2.2l22.15-22.15-2.2-2.2L9 36.8Zm30.7-24.3-6.4-6.4 2.1-2.1q.85-.85 2.1-.85t2.1.85l2.2 2.2q.85.85.85 2.1t-.85 2.1Zm-2.1 2.1L12.4 42H6v-6.4l25.2-25.2Zm-5.35-1.05-1.1-1.1 2.2 2.2Z"/></symbol>

<symbol id="icon-delete" viewBox="0 0 50 50"><path d="M13.05 42q-1.25 0-2.125-.875T10.05 39V10.5H8v-3h9.4V6h13.2v1.5H40v3h-2.05V39q0 1.2-.9 2.1-.9.9-2.1.9Zm21.9-31.5h-21.9V39h21.9Zm-16.6 24.2h3V14.75h-3Zm8.3 0h3V14.75h-3Zm-13.6-24.2V39Z"/></symbol></defs>
<symbol id="icon-error" viewBox="0 0 43 43"><path d="M2 42 24 4l22 38Zm5.2-3h33.6L24 10Zm17-2.85q.65 0 1.075-.425.425-.425.425-1.075 0-.65-.425-1.075-.425-.425-1.075-.425-.65 0-1.075.425Q22.7 34 22.7 34.65q0 .65.425 1.075.425.425 1.075.425Zm-1.5-5.55h3V19.4h-3Zm1.3-6.1Z"/></symbol>
<symbol id="icon-menu" viewBox="0 0 42 42"><path d="M6 36v-3h36v3Zm0-10.5v-3h36v3ZM6 15v-3h36v3Z"/></symbol>
<symbol id="icon-user" viewBox="0 96 960 960"><path d="M480 575q-66 0-108-42t-42-108q0-66 42-108t108-42q66 0 108 42t42 108q0 66-42 108t-108 42ZM160 896v-94q0-38 19-65t49-41q67-30 128.5-45T480 636q62 0 123 15.5t127.921 44.694q31.301 14.126 50.19 40.966Q800 764 800 802v94H160Zm60-60h520v-34q0-16-9.5-30.5T707 750q-64-31-117-42.5T480 696q-57 0-111 11.5T252 750q-14 7-23 21.5t-9 30.5v34Zm260-321q39 0 64.5-25.5T570 425q0-39-25.5-64.5T480 335q-39 0-64.5 25.5T390 425q0 39 25.5 64.5T480 515Zm0-90Zm0 411Z"/></symbol>
<symbol id="icon-catalogue"  viewBox="0 0 56 56"><path d="M13.909713,30 L18.4376649,30.0018377 C20.4676076,30.0240578 21.5382254,30.2507891 22.6495125,30.845112 C23.7257301,31.4206794 24.5793206,32.2742699 25.154888,33.3504875 C25.7822288,34.5235128 26,35.6512244 26,37.909713 L26,37.909713 L26,42.090287 C26,44.3487756 25.7822288,45.4764872 25.154888,46.6495125 C24.5793206,47.7257301 23.7257301,48.5793206 22.6495125,49.154888 C21.4764872,49.7822288 20.3487756,50 18.090287,50 L18.090287,50 L13.909713,50 C11.6512244,50 10.5235128,49.7822288 9.35048745,49.154888 C8.27426993,48.5793206 7.42067939,47.7257301 6.84511196,46.6495125 C6.21777116,45.4764872 6,44.3487756 6,42.090287 L6,42.090287 L6.0018377,37.5623351 C6.02405782,35.5323924 6.25078909,34.4617746 6.84511196,33.3504875 C7.42067939,32.2742699 8.27426993,31.4206794 9.35048745,30.845112 C10.5235128,30.2177712 11.6512244,30 13.909713,30 L13.909713,30 Z M37.909713,30 L42.4376649,30.0018377 C44.4676076,30.0240578 45.5382254,30.2507891 46.6495125,30.845112 C47.7257301,31.4206794 48.5793206,32.2742699 49.154888,33.3504875 C49.7822288,34.5235128 50,35.6512244 50,37.909713 L50,37.909713 L50,42.090287 C50,44.3487756 49.7822288,45.4764872 49.154888,46.6495125 C48.5793206,47.7257301 47.7257301,48.5793206 46.6495125,49.154888 C45.4764872,49.7822288 44.3487756,50 42.090287,50 L42.090287,50 L37.909713,50 C35.6512244,50 34.5235128,49.7822288 33.3504875,49.154888 C32.2742699,48.5793206 31.4206794,47.7257301 30.845112,46.6495125 C30.2177712,45.4764872 30,44.3487756 30,42.090287 L30,42.090287 L30.0018377,37.5623351 C30.0240578,35.5323924 30.2507891,34.4617746 30.845112,33.3504875 C31.4206794,32.2742699 32.2742699,31.4206794 33.3504875,30.845112 C34.5235128,30.2177712 35.6512244,30 37.909713,30 L37.909713,30 Z M18.090287,33 L13.6339708,33.0010747 C12.0346087,33.0140656 11.4085429,33.1465329 10.765284,33.4905516 C10.2118719,33.7865196 9.78651959,34.2118719 9.49055156,34.765284 C9.12742078,35.4442795 9,36.1041185 9,37.909713 L9,37.909713 L9.00107469,42.3660292 C9.01406565,43.9653913 9.14653293,44.5914571 9.49055156,45.234716 C9.78651959,45.7881281 10.2118719,46.2134804 10.765284,46.5094484 C11.3728063,46.8343549 11.9649928,46.9705628 13.3762526,46.9956381 L13.3762526,46.9956381 L13.909713,47 L18.090287,47 C19.8958815,47 20.5557205,46.8725792 21.234716,46.5094484 C21.7881281,46.2134804 22.2134804,45.7881281 22.5094484,45.234716 C22.8343549,44.6271937 22.9705628,44.0350072 22.9956381,42.6237474 L22.9956381,42.6237474 L23,42.090287 L23,37.909713 C23,36.1041185 22.8725792,35.4442795 22.5094484,34.765284 C22.2134804,34.2118719 21.7881281,33.7865196 21.234716,33.4905516 C20.5557205,33.1274208 19.8958815,33 18.090287,33 L18.090287,33 Z M42.090287,33 L37.6339708,33.0010747 C36.0346087,33.0140656 35.4085429,33.1465329 34.765284,33.4905516 C34.2118719,33.7865196 33.7865196,34.2118719 33.4905516,34.765284 C33.1274208,35.4442795 33,36.1041185 33,37.909713 L33,37.909713 L33.0010747,42.3660292 C33.0140656,43.9653913 33.1465329,44.5914571 33.4905516,45.234716 C33.7865196,45.7881281 34.2118719,46.2134804 34.765284,46.5094484 C35.3728063,46.8343549 35.9649928,46.9705628 37.3762526,46.9956381 L37.3762526,46.9956381 L37.909713,47 L42.090287,47 C43.8958815,47 44.5557205,46.8725792 45.234716,46.5094484 C45.7881281,46.2134804 46.2134804,45.7881281 46.5094484,45.234716 C46.8343549,44.6271937 46.9705628,44.0350072 46.9956381,42.6237474 L46.9956381,42.6237474 L47,42.090287 L47,37.909713 C47,36.1041185 46.8725792,35.4442795 46.5094484,34.765284 C46.2134804,34.2118719 45.7881281,33.7865196 45.234716,33.4905516 C44.5557205,33.1274208 43.8958815,33 42.090287,33 L42.090287,33 Z M38.228432,4.82460117 C39.3964203,4.4705881 40.6035797,4.4705881 41.771568,4.82460117 C43.0446191,5.21045839 43.9960191,5.85388345 45.5930117,7.45087608 L45.5930117,7.45087608 L48.7934577,10.653921 C50.213132,12.1050193 50.8098499,13.0223836 51.1753988,14.228432 C51.5294119,15.3964203 51.5294119,16.6035797 51.1753988,17.771568 C50.7895416,19.0446191 50.1461165,19.9960191 48.5491239,21.5930117 L48.5491239,21.5930117 L45.5930117,24.5491239 C43.9960191,26.1461165 43.0446191,26.7895416 41.771568,27.1753988 C40.6035797,27.5294119 39.3964203,27.5294119 38.228432,27.1753988 C36.9553809,26.7895416 36.0039809,26.1461165 34.4069883,24.5491239 L34.4069883,24.5491239 L31.4508761,21.5930117 C29.8538835,19.9960191 29.2104584,19.0446191 28.8246012,17.771568 C28.4705881,16.6035797 28.4705881,15.3964203 28.8246012,14.228432 C29.2104584,12.9553809 29.8538835,12.0039809 31.4508761,10.4069883 L31.4508761,10.4069883 L34.653921,7.20654226 C36.1050193,5.78686798 37.0223836,5.19015012 38.228432,4.82460117 Z M13.909713,6 L18.4376649,6.0018377 C20.4676076,6.02405782 21.5382254,6.25078909 22.6495125,6.84511196 C23.7257301,7.42067939 24.5793206,8.27426993 25.154888,9.35048745 C25.7822288,10.5235128 26,11.6512244 26,13.909713 L26,13.909713 L26,18.090287 C26,20.3487756 25.7822288,21.4764872 25.154888,22.6495125 C24.5793206,23.7257301 23.7257301,24.5793206 22.6495125,25.154888 C21.4764872,25.7822288 20.3487756,26 18.090287,26 L18.090287,26 L13.909713,26 C11.6512244,26 10.5235128,25.7822288 9.35048745,25.154888 C8.27426993,24.5793206 7.42067939,23.7257301 6.84511196,22.6495125 C6.21777116,21.4764872 6,20.3487756 6,18.090287 L6,18.090287 L6.0018377,13.5623351 C6.02405782,11.5323924 6.25078909,10.4617746 6.84511196,9.35048745 C7.42067939,8.27426993 8.27426993,7.42067939 9.35048745,6.84511196 C10.5235128,6.21777116 11.6512244,6 13.909713,6 L13.909713,6 Z M40.901372,7.6956217 C40.3007695,7.51358125 39.6992305,7.51358125 39.098628,7.6956217 C38.3617335,7.9189718 37.8050568,8.2954483 36.5283086,9.57219642 L36.5283086,9.57219642 L33.3779772,12.7240477 C32.2562434,13.8641535 31.9072165,14.4005174 31.6956217,15.098628 C31.5135813,15.6992305 31.5135813,16.3007695 31.6956217,16.901372 C31.8954613,17.5606987 32.2178868,18.0757513 33.1980673,19.0913936 L33.1980673,19.0913936 L33.5721964,19.4716914 L36.5283086,22.4278036 C37.8050568,23.7045517 38.3617335,24.0810282 39.098628,24.3043783 C39.6992305,24.4864187 40.3007695,24.4864187 40.901372,24.3043783 C41.5606987,24.1045387 42.0757513,23.7821132 43.0913936,22.8019327 L43.0913936,22.8019327 L43.4716914,22.4278036 L46.4278036,19.4716914 C47.7045517,18.1949432 48.0810282,17.6382665 48.3043783,16.901372 C48.4864187,16.3007695 48.4864187,15.6992305 48.3043783,15.098628 C48.0810282,14.3617335 47.7045517,13.8050568 46.4278036,12.5283086 L46.4278036,12.5283086 L43.2759523,9.37797716 C42.1358465,8.25624337 41.5994826,7.90721654 40.901372,7.6956217 Z M18.090287,9 L13.6339708,9.00107469 C12.0346087,9.01406565 11.4085429,9.14653293 10.765284,9.49055156 C10.2118719,9.78651959 9.78651959,10.2118719 9.49055156,10.765284 C9.12742078,11.4442795 9,12.1041185 9,13.909713 L9,13.909713 L9.00107469,18.3660292 C9.01406565,19.9653913 9.14653293,20.5914571 9.49055156,21.234716 C9.78651959,21.7881281 10.2118719,22.2134804 10.765284,22.5094484 C11.3728063,22.8343549 11.9649928,22.9705628 13.3762526,22.9956381 L13.3762526,22.9956381 L13.909713,23 L18.090287,23 C19.8958815,23 20.5557205,22.8725792 21.234716,22.5094484 C21.7881281,22.2134804 22.2134804,21.7881281 22.5094484,21.234716 C22.8343549,20.6271937 22.9705628,20.0350072 22.9956381,18.6237474 L22.9956381,18.6237474 L23,18.090287 L23,13.909713 C23,12.1041185 22.8725792,11.4442795 22.5094484,10.765284 C22.2134804,10.2118719 21.7881281,9.78651959 21.234716,9.49055156 C20.5557205,9.12742078 19.8958815,9 18.090287,9 L18.090287,9 Z"  ></path></symbol>
<symbol id="icon-orders"  viewBox="0 0 520 520">
<g  transform="translate(0.000000,520) scale(0.100000,-0.100000)">
<path d="M1000 5113 c-181 -29 -268 -56 -400 -125 -192 -99 -369 -276 -468
-468 -57 -110 -83 -182 -109 -300 -17 -80 -18 -174 -18 -1660 0 -1486 1 -1580
18 -1660 56 -259 193 -486 392 -647 142 -114 302 -190 485 -230 80 -17 174
-18 1660 -18 1486 0 1580 1 1660 18 183 40 343 116 485 230 199 161 336 388
392 647 17 80 18 174 18 1660 0 1486 -1 1580 -18 1660 -26 118 -52 190 -109
300 -149 288 -421 495 -758 576 -70 17 -169 18 -1640 20 -861 1 -1576 0 -1590
-3z m3190 -335 c163 -49 272 -111 374 -214 105 -104 170 -220 214 -379 16 -55
17 -195 17 -1625 0 -1708 4 -1586 -55 -1742 -66 -178 -260 -372 -438 -438
-156 -59 -34 -55 -1742 -55 -1708 0 -1586 -4 -1742 55 -177 66 -372 261 -438
438 -59 157 -55 28 -58 1697 -2 1132 0 1549 9 1605 52 336 303 597 639 665 52
11 364 13 1615 12 1416 -2 1555 -4 1605 -19z"/>
<path d="M1215 3986 c-41 -18 -83 -69 -90 -109 -4 -18 -5 -118 -3 -224 3 -210
5 -218 72 -267 26 -20 41 -21 246 -21 241 0 243 1 294 69 20 26 21 41 21 246
0 205 -1 220 -21 246 -50 67 -55 69 -282 71 -157 2 -214 0 -237 -11z"/>
<path d="M2080 3680 l0 -160 960 0 960 0 0 160 0 160 -960 0 -960 0 0 -160z"/>
<path d="M1215 2866 c-41 -18 -83 -69 -90 -109 -4 -18 -5 -118 -3 -224 3 -210
5 -218 72 -267 26 -20 41 -21 246 -21 205 0 220 1 246 21 68 51 69 53 69 294
0 205 -1 220 -21 246 -50 67 -55 69 -282 71 -157 2 -214 0 -237 -11z"/>
<path d="M2080 2560 l0 -160 960 0 960 0 0 160 0 160 -960 0 -960 0 0 -160z"/>
<path d="M1215 1746 c-41 -18 -83 -69 -90 -109 -4 -18 -5 -118 -3 -224 3 -210
5 -218 72 -267 26 -20 41 -21 246 -21 205 0 220 1 246 21 68 51 69 53 69 294
0 205 -1 220 -21 246 -50 67 -55 69 -282 71 -157 2 -214 0 -237 -11z"/>
<path d="M2080 1440 l0 -160 960 0 960 0 0 160 0 160 -960 0 -960 0 0 -160z"/>
</g></symbol>
<symbol id="icon-close" viewBox="0 -960 960 960"  >
 <path d="m249-207-42-42 231-231-231-231 42-42 231 231 231-231 42 42-231 231 231 231-42 42-231-231-231 231Z"/>
</symbol>
</svg>
