<svg aria-hidden="true" style="position: absolute; width: 0; height: 0; overflow: hidden;" version="1.1" xmlns="http://www.w3.org/2000/svg" xmlns:xlink="http://www.w3.org/1999/xlink">
<defs>
<symbol id="icon-catalogue" viewBox="0 0 32 32">
<path d="M5.956 0.15c-0.394 0.188-0.669 0.544-0.769 0.994-0.050 0.238-0.063 3.763-0.050 12.606 0.019 13.619-0.019 12.488 0.431 12.931 0.331 0.337 0.556 0.4 1.475 0.431l0.825 0.025 0.019 1.919c0.019 1.837 0.025 1.925 0.156 2.175 0.169 0.319 0.512 0.6 0.825 0.7 0.175 0.050 2.5 0.069 8.544 0.069h8.306l0.319-0.15c0.65-0.3 0.837-0.762 0.837-2.038 0-0.95-0.056-1.2-0.288-1.306-0.219-0.1-0.294-0.087-0.488 0.063l-0.163 0.125v0.969c0 1.006-0.056 1.275-0.281 1.363-0.056 0.019-3.8 0.038-8.319 0.038h-8.219l-0.15-0.156-0.156-0.15v-24.581l0.181-0.181 0.188-0.181 16.438 0.031 0.288 0.287 0.031 10.438c0.031 10.244 0.031 10.444 0.15 10.531 0.175 0.125 0.431 0.106 0.606-0.031l0.15-0.119v-10.494c0-10.175-0.006-10.494-0.119-10.725-0.15-0.306-0.444-0.6-0.725-0.719-0.144-0.063-0.494-0.106-1.044-0.125l-0.825-0.025-0.019-1.919c-0.019-1.837-0.025-1.925-0.156-2.175-0.169-0.319-0.512-0.6-0.825-0.7-0.175-0.050-1.869-0.069-6.019-0.069-5.756 0-5.781 0-5.95 0.131-0.206 0.162-0.225 0.481-0.031 0.656 0.125 0.113 0.325 0.119 5.188 0.15l5.056 0.031-6.331 2.019c-3.613 1.156-6.425 2.088-6.556 2.175-0.125 0.081-0.313 0.281-0.406 0.444l-0.175 0.3-0.019 10.144-0.013 10.15-0.75-0.025c-0.681-0.019-0.763-0.031-0.888-0.163l-0.144-0.144-0.019-12.2c-0.006-6.706 0-12.262 0.019-12.344 0.019-0.075 0.088-0.194 0.156-0.262 0.119-0.119 0.213-0.125 1.65-0.125 1.394 0 1.537-0.012 1.669-0.119 0.2-0.162 0.2-0.537 0-0.7-0.131-0.106-0.275-0.119-1.719-0.119-1.525 0-1.575 0.006-1.894 0.15zM23.188 3.125v1.75l-5.419-0.006c-2.988 0-5.381-0.019-5.331-0.044 0.125-0.050 10.644-3.431 10.706-3.444 0.025-0.006 0.044 0.781 0.044 1.744z"></path>
<path d="M10.787 7.188c-0.1 0.031-0.25 0.119-0.338 0.2-0.319 0.294-0.325 0.369-0.325 2.937 0 2.281 0.006 2.4 0.131 2.65 0.094 0.194 0.2 0.3 0.394 0.394 0.256 0.125 0.369 0.131 2.856 0.131 2.887 0 2.875 0 3.163-0.431 0.144-0.213 0.144-0.213 0.144-2.75 0-2.406-0.006-2.55-0.125-2.737-0.256-0.425-0.244-0.425-3.125-0.438-1.425-0.006-2.675 0.013-2.775 0.044zM15.875 10.313v2.25h-4.813v-2.206c0-1.219 0.019-2.231 0.044-2.25 0.019-0.025 1.106-0.044 2.406-0.044h2.363v2.25z"></path>
<path d="M18.15 9.025c-0.3 0.131-0.375 0.469-0.15 0.713l0.131 0.137h3.113c3.038 0 3.113 0 3.225-0.125 0.156-0.175 0.144-0.475-0.025-0.644-0.137-0.137-0.137-0.137-3.119-0.15-2.406-0.012-3.019 0-3.175 0.069z"></path>
<path d="M18.012 10.894c-0.169 0.181-0.175 0.419-0.019 0.613 0.119 0.15 0.144 0.15 1.369 0.169 1.238 0.019 1.25 0.019 1.419-0.131 0.225-0.194 0.244-0.512 0.038-0.681-0.131-0.1-0.275-0.113-1.406-0.113-1.244 0-1.269 0-1.4 0.144z"></path>
<path d="M10.506 15.731c-0.375 0.3-0.381 0.331-0.381 2.975 0 2.356 0 2.394 0.144 2.669 0.256 0.506 0.206 0.5 3.2 0.5 2.925 0 2.913 0 3.2-0.431 0.144-0.212 0.144-0.219 0.144-2.738 0-2.787 0-2.781-0.394-3.019-0.188-0.119-0.331-0.125-2.95-0.125h-2.75l-0.213 0.169zM15.875 18.719v2.219h-4.813v-4.438h4.813v2.219z"></path>
<path d="M18 17.512c-0.262 0.281-0.094 0.694 0.325 0.769 0.113 0.019 1.506 0.031 3.094 0.019 2.881-0.019 2.894-0.019 3.025-0.156 0.169-0.169 0.181-0.469 0.025-0.644-0.113-0.125-0.188-0.125-3.225-0.125h-3.113l-0.131 0.137z"></path>
<path d="M18.031 19.281c-0.087 0.081-0.156 0.225-0.156 0.313s0.069 0.231 0.156 0.313c0.15 0.156 0.163 0.156 1.337 0.156 1.3 0 1.462-0.031 1.563-0.325 0.075-0.212-0.038-0.506-0.212-0.575-0.056-0.019-0.65-0.038-1.319-0.038-1.212 0-1.219 0-1.369 0.156z"></path>
<path d="M10.556 23.581c-0.431 0.288-0.431 0.3-0.431 2.981 0 2.375 0 2.413 0.144 2.688 0.256 0.506 0.206 0.5 3.2 0.5 2.925 0 2.913 0 3.2-0.431 0.144-0.212 0.144-0.219 0.144-2.738 0-2.788 0-2.781-0.394-3.019-0.188-0.119-0.331-0.125-2.925-0.125h-2.725l-0.213 0.144zM15.875 26.594v2.219h-4.813v-4.438h4.813v2.219z"></path>
<path d="M18 25.387c-0.244 0.262-0.1 0.681 0.262 0.769 0.081 0.019 1.475 0.025 3.094 0.019 2.944-0.019 2.956-0.019 3.087-0.156 0.169-0.169 0.181-0.469 0.025-0.644-0.113-0.125-0.188-0.125-3.225-0.125h-3.113l-0.131 0.137z"></path>
<path d="M18.031 27.156c-0.087 0.081-0.156 0.225-0.156 0.313s0.069 0.231 0.156 0.313c0.15 0.156 0.156 0.156 1.387 0.156 1.331-0.006 1.394-0.019 1.519-0.337 0.069-0.194-0.044-0.494-0.219-0.563-0.056-0.019-0.65-0.038-1.319-0.038-1.212 0-1.219 0-1.369 0.156z"></path>
</symbol>
<symbol id="icon-shop" viewBox="0 0 32 32">
<path d="M5.344 2.069c-0.1 0.031-0.237 0.094-0.3 0.144-0.063 0.044-1.212 2.025-2.563 4.387l-2.45 4.306 0.006 0.5c0.019 0.869 0.344 1.794 0.894 2.525 0.319 0.425 1 1.012 1.462 1.262l0.356 0.188v6.975c0 7.688-0.025 7.238 0.394 7.488 0.194 0.125 0.406 0.125 12.856 0.125s12.663 0 12.856-0.125c0.419-0.25 0.394 0.2 0.394-7.488v-6.975l0.369-0.194c1.363-0.725 2.319-2.275 2.344-3.781l0.006-0.5-2.4-4.219c-1.319-2.319-2.475-4.3-2.569-4.394-0.094-0.1-0.275-0.2-0.413-0.231-0.325-0.081-20.994-0.069-21.244 0.006zM27.856 6.875l1.831 3.219-6.844 0.019c-3.762 0.006-9.925 0.006-13.688 0l-6.844-0.019 1.831-3.231 1.825-3.231 20.063 0.025 1.825 3.219zM7.525 11.856c-0.463 1.925-2.563 2.887-4.338 1.988-0.362-0.181-0.825-0.594-1.069-0.944-0.169-0.25-0.494-1-0.494-1.15 0-0.037 1.075-0.063 2.969-0.063h2.969l-0.037 0.169zM15.1 11.95c-0.063 0.394-0.4 0.975-0.794 1.369-1.188 1.188-3.144 1.144-4.287-0.094-0.35-0.375-0.669-0.944-0.744-1.338l-0.037-0.2h5.906l-0.044 0.262zM22.725 11.887c-0.194 0.969-1.156 1.938-2.188 2.213-1.113 0.3-2.45-0.175-3.131-1.1-0.256-0.35-0.525-0.95-0.531-1.175v-0.137h5.894l-0.044 0.2zM30.337 11.919c-0.087 0.412-0.438 1-0.806 1.369-1.025 1.031-2.544 1.194-3.756 0.412-0.619-0.4-1.025-0.95-1.25-1.688l-0.081-0.262h5.931l-0.038 0.169zM9.044 14.481c0.481 0.475 1.069 0.831 1.738 1.056 0.713 0.244 1.731 0.281 2.475 0.094 0.881-0.219 1.494-0.569 2.169-1.238l0.581-0.575 0.544 0.544c0.613 0.613 1.125 0.938 1.856 1.181 0.45 0.156 0.594 0.169 1.406 0.169 0.831 0.006 0.944-0.012 1.406-0.169 0.275-0.1 0.688-0.287 0.919-0.425 0.419-0.244 1.106-0.863 1.337-1.2l0.125-0.175 0.306 0.381c0.775 0.963 2.131 1.619 3.363 1.625h0.419v12.625h-12.938v-4.306c0-2.625-0.025-4.431-0.063-4.631-0.194-1.025-0.95-1.825-1.969-2.094-0.506-0.131-3.012-0.131-3.563-0.006-0.9 0.212-1.631 0.894-1.95 1.825-0.094 0.275-0.106 0.775-0.125 4.756l-0.025 4.456h-2.744v-12.625h0.425c1.225-0.006 2.581-0.662 3.356-1.625l0.306-0.381 0.125 0.175c0.063 0.094 0.3 0.35 0.519 0.563zM12.531 18.931c0.3 0.137 0.431 0.275 0.563 0.587 0.081 0.194 0.094 0.8 0.094 4.544v4.313h-4.5v-4.338c0-2.925 0.019-4.4 0.069-4.519 0.094-0.25 0.3-0.456 0.588-0.587 0.219-0.1 0.419-0.119 1.594-0.119 1.169 0 1.375 0.019 1.594 0.119z"></path>
<path d="M17.831 17.319c-0.337 0.081-0.887 0.45-1.137 0.762-0.106 0.137-0.25 0.4-0.319 0.587-0.125 0.331-0.131 0.45-0.113 2.481l0.019 2.131 0.163 0.35c0.212 0.45 0.6 0.837 1.050 1.050l0.35 0.163h5.438l0.35-0.163c0.45-0.212 0.837-0.6 1.050-1.050l0.163-0.35v-4.438l-0.163-0.344c-0.206-0.431-0.606-0.831-1.056-1.050l-0.344-0.169-2.594-0.012c-1.5-0.006-2.706 0.019-2.856 0.050zM23 18.906c0.1 0.050 0.212 0.15 0.25 0.212 0.038 0.075 0.063 0.825 0.063 1.975v1.856l-0.363 0.363h-4.775l-0.363-0.363v-1.869c0-2.006 0.012-2.075 0.337-2.206 0.069-0.031 1.15-0.056 2.4-0.056 1.906-0.006 2.3 0.006 2.45 0.087z"></path>
</symbol>
<symbol id="icon-shopping-cart" viewBox="0 0 32 32">
<path d="M0.394 0.537c-0.194 0.094-0.394 0.406-0.394 0.612 0 0.2 0.181 0.531 0.35 0.644 0.156 0.1 0.362 0.119 1.806 0.144 1.531 0.031 1.638 0.038 1.888 0.175 0.356 0.188 0.675 0.519 0.85 0.875 0.081 0.163 1.2 3.469 2.481 7.35l2.338 7.050-0.113 0.294c-0.456 1.188-0.438 1.125-0.444 1.881 0 0.587 0.025 0.794 0.144 1.137 0.387 1.125 1.313 1.969 2.481 2.269 0.544 0.137 15.194 0.144 15.462 0.006 0.512-0.269 0.506-1.006-0.012-1.306-0.106-0.056-1.831-0.081-7.7-0.106l-7.563-0.031-0.338-0.188c-0.344-0.188-0.65-0.519-0.856-0.906-0.081-0.163-0.113-0.363-0.119-0.781 0-0.481 0.025-0.625 0.175-0.975 0.175-0.406 0.188-0.419 0.438-0.456 0.144-0.019 3.65-0.387 7.794-0.819s7.688-0.813 7.875-0.85c0.75-0.144 1.531-0.538 2.087-1.050 0.406-0.375 0.825-1.044 1.038-1.662 0.231-0.669 1.95-8.031 1.913-8.188-0.044-0.181-0.256-0.394-0.475-0.481-0.1-0.037-4.637-0.125-12.262-0.231-6.662-0.094-12.119-0.181-12.137-0.2-0.013-0.013-0.169-0.475-0.35-1.025-0.463-1.394-0.631-1.725-1.156-2.256-0.481-0.488-1.094-0.831-1.706-0.956-0.188-0.037-0.975-0.069-1.813-0.069-1.219 0-1.519 0.019-1.681 0.1zM20.438 6.444c5.413 0.075 9.85 0.144 9.863 0.156 0.012 0.006-0.344 1.525-0.794 3.381-0.85 3.488-0.981 3.894-1.381 4.325-0.319 0.338-0.769 0.606-1.194 0.719-0.35 0.088-15.219 1.663-15.731 1.663h-0.194l-0.95-2.894c-0.525-1.588-1.294-3.938-1.719-5.225l-0.769-2.338 1.513 0.037c0.831 0.025 5.944 0.1 11.356 0.175z"></path>
<path d="M9.5 24.975c-1.2 0.256-2.25 1.281-2.531 2.469-0.269 1.15 0.056 2.281 0.894 3.119 0.856 0.856 1.969 1.175 3.131 0.906 0.581-0.137 1.1-0.444 1.575-0.919 0.744-0.744 1.088-1.75 0.944-2.762-0.156-1.094-0.856-2.056-1.856-2.538-0.738-0.363-1.381-0.444-2.156-0.275zM11.025 26.587c0.656 0.319 1 0.9 1.006 1.663 0 0.369-0.031 0.525-0.144 0.75-0.225 0.425-0.619 0.794-1 0.938-1.519 0.569-2.956-0.869-2.387-2.387 0.181-0.488 0.675-0.931 1.25-1.119 0.287-0.094 0.919-0.019 1.275 0.156z"></path>
<path d="M23.625 24.975c-0.637 0.137-1.156 0.425-1.656 0.925-0.675 0.675-0.969 1.375-0.969 2.319 0 0.95 0.306 1.7 0.981 2.369 1.3 1.3 3.363 1.3 4.662 0 0.675-0.669 0.981-1.406 0.981-2.331 0-0.988-0.281-1.669-0.969-2.356-0.506-0.506-1.019-0.788-1.688-0.931-0.531-0.113-0.813-0.113-1.344 0.006zM25.075 26.544c0.375 0.169 0.719 0.525 0.913 0.944 0.406 0.887 0.031 1.944-0.844 2.387-0.431 0.225-1.231 0.225-1.663 0-1.025-0.519-1.313-1.775-0.631-2.762 0.456-0.656 1.444-0.913 2.225-0.569z"></path>
</symbol>
<symbol id="icon-right-arrow" viewBox="0 0 32 32">
<path d="M23.719 8.369c-0.294 0.137-0.556 0.4-0.65 0.65s-0.087 0.762 0.019 1c0.050 0.113 1.087 1.2 2.344 2.45l2.256 2.25-26.844 0.063-0.238 0.15c-0.131 0.081-0.313 0.262-0.406 0.4-0.144 0.213-0.169 0.325-0.169 0.669s0.025 0.456 0.169 0.669c0.094 0.137 0.275 0.319 0.406 0.4l0.238 0.15 26.844 0.063-2.256 2.25c-1.256 1.25-2.294 2.337-2.344 2.45-0.106 0.238-0.113 0.75-0.019 1 0.225 0.606 1.044 0.931 1.631 0.656 0.269-0.125 6.9-6.637 7.125-7 0.212-0.344 0.206-0.963-0.019-1.3-0.262-0.394-6.838-6.85-7.106-6.975-0.3-0.144-0.669-0.137-0.981 0.006z"></path>
</symbol>
</defs>
</svg>
